<?xml version="1.0" encoding="UTF-8"?><svg xmlns="http://www.w3.org/2000/svg" xmlns:xlink="http://www.w3.org/1999/xlink" height="52.0" preserveAspectRatio="xMidYMid meet" version="1.0" viewBox="35.8 34.5 52.0 52.0" width="52.0" zoomAndPan="magnify"><g id="change1_1"><path d="m61.8 34.5c-14.4 0-26 11.6-26 26s11.6 26 26 26 26-11.6 26-26-11.6-26-26-26z" fill="#494547"/></g><g id="change2_2"><path d="m75.8 60.4l-14-12.3-13.9 12.3v17.6c0 0.5 0.4 0.8 0.8 0.8h8.7v-7.7c0-0.5 0.4-0.8 0.8-0.8h7.2c0.5 0 0.8 0.4 0.8 0.8v7.7h8.7c0.5 0 0.8-0.4 0.8-0.8l0.1-17.6z" fill="#fff"/></g><g id="change2_1"><path d="M75.8 53.6L75.8 46.5 70.7 46.5 70.8 49.2 61.9 41.3 61.8 41.4 61.7 41.3 61.7 41.3 42 58.9 44 61.2 61.8 45.5 79.6 61.2 81.7 58.9z" fill="#fff"/></g></svg>