<?xml version="1.0" encoding="UTF-8"?><svg xmlns="http://www.w3.org/2000/svg" xmlns:xlink="http://www.w3.org/1999/xlink" height="891.4" preserveAspectRatio="xMidYMid meet" version="1.0" viewBox="0.0 0.0 1506.7 891.4" width="1506.7" zoomAndPan="magnify"><defs><clipPath id="a"><path d="M 0 0 L 1506.738281 0 L 1506.738281 843 L 0 843 Z M 0 0"/></clipPath><clipPath id="b"><path d="M 329 858 L 1178 858 L 1178 891.410156 L 329 891.410156 Z M 329 858"/></clipPath></defs><g><g id="change1_2"><path d="M 1447.371094 216.992188 C 1423.578125 216.992188 1404.289062 236.277344 1404.289062 260.066406 C 1404.289062 274.101562 1411.011719 286.5625 1421.398438 294.429688 C 1398.929688 311.496094 1371.070312 333.144531 1342.820312 356.324219 C 1231.101562 448.007812 1205.910156 487.230469 1200.839844 502.453125 L 1188.378906 539.84375 L 1176.78125 502.175781 C 1175.601562 498.34375 1155.269531 431.042969 1160.121094 367.703125 C 1167 372.34375 1175.28125 375.050781 1184.191406 375.050781 C 1207.980469 375.050781 1227.269531 355.765625 1227.269531 331.976562 C 1227.269531 308.1875 1207.980469 288.902344 1184.191406 288.902344 C 1160.398438 288.902344 1141.121094 308.1875 1141.121094 331.976562 C 1141.121094 346.546875 1148.359375 359.417969 1159.429688 367.210938 L 1105.679688 435.964844 L 1095.660156 427.523438 C 1094.75 426.753906 1073.078125 408.367188 1053.601562 380.097656 C 1051.488281 377.035156 1049.488281 373.972656 1047.589844 370.910156 C 1062.148438 364.003906 1072.21875 349.167969 1072.21875 331.976562 C 1072.21875 308.1875 1052.941406 288.902344 1029.148438 288.902344 C 1005.359375 288.902344 986.074219 308.1875 986.074219 331.976562 C 986.074219 350.699219 998.023438 366.625 1014.710938 372.5625 C 1012.191406 379.757812 1009.628906 387.105469 1007.078125 394.527344 C 970.398438 501.292969 964.949219 533.5 964.96875 543.191406 L 965.03125 578.238281 L 942.625 551.289062 C 940.570312 548.816406 891.683594 489.691406 843.214844 403.355469 C 814.679688 352.527344 792.328125 302.894531 776.78125 255.828125 C 774.570312 249.144531 772.503906 242.507812 770.570312 235.921875 C 775.832031 226.433594 780.476562 217.324219 784.554688 208.589844 C 846.484375 151.367188 950.148438 147.382812 950.148438 147.382812 C 901.929688 102.242188 845.082031 118.742188 807.386719 139.109375 C 823.214844 45.148438 756.332031 17.617188 756.332031 17.617188 C 756.332031 17.617188 689.445312 45.148438 705.277344 139.109375 C 667.578125 118.742188 610.730469 102.242188 562.515625 147.382812 C 562.515625 147.382812 666.175781 151.367188 728.109375 208.589844 C 732.183594 217.324219 736.828125 226.433594 742.09375 235.921875 C 740.160156 242.507812 738.089844 249.144531 735.882812 255.828125 C 720.335938 302.894531 697.984375 352.527344 669.449219 403.355469 C 620.976562 489.691406 572.09375 548.816406 570.035156 551.289062 L 547.632812 578.238281 L 547.695312 543.191406 C 547.710938 533.496094 542.261719 501.28125 505.5625 394.476562 C 499.652344 377.277344 493.722656 360.464844 488.238281 345.136719 C 507.425781 340.785156 521.753906 323.640625 521.753906 303.140625 C 521.753906 279.351562 502.46875 260.066406 478.675781 260.066406 C 454.886719 260.066406 435.605469 279.351562 435.605469 303.140625 C 435.605469 326.738281 454.582031 345.894531 478.109375 346.199219 C 473.226562 357.4375 466.859375 368.785156 459.0625 380.097656 C 439.578125 408.367188 417.917969 426.753906 417.003906 427.523438 L 406.984375 435.964844 L 366.210938 383.8125 C 379.371094 376.441406 388.269531 362.371094 388.269531 346.214844 C 388.269531 322.425781 368.988281 303.140625 345.199219 303.140625 C 321.40625 303.140625 302.125 322.425781 302.125 346.214844 C 302.125 370.003906 321.40625 389.289062 345.199219 389.289062 C 347.964844 389.289062 350.664062 389.019531 353.285156 388.519531 C 353.175781 444.992188 336.929688 498.761719 335.878906 502.175781 L 324.28125 539.84375 L 311.824219 502.453125 C 306.753906 487.226562 281.546875 447.980469 169.742188 356.246094 C 140.214844 332.015625 111.121094 309.46875 88.179688 292.085938 C 96.933594 284.199219 102.445312 272.777344 102.445312 260.066406 C 102.445312 236.277344 83.160156 216.992188 59.371094 216.992188 C 35.582031 216.992188 16.296875 236.277344 16.296875 260.066406 C 16.296875 283.855469 35.582031 303.140625 59.371094 303.140625 C 70.105469 303.140625 79.917969 299.203125 87.460938 292.707031 L 368.808594 826.222656 L 1143.851562 826.222656 L 1423.5 295.925781 C 1430.328125 300.480469 1438.539062 303.140625 1447.371094 303.140625 C 1471.148438 303.140625 1490.441406 283.855469 1490.441406 260.066406 C 1490.441406 236.277344 1471.148438 216.992188 1447.371094 216.992188" fill="#f7be23"/></g><g clip-path="url(#a)" id="change1_3"><path d="M 611.84375 137.503906 C 649.378906 145.066406 701.074219 161.425781 739.167969 196.621094 L 741.519531 198.796875 L 742.875 201.699219 C 746.84375 210.199219 751.371094 219.046875 756.332031 227.992188 C 761.292969 219.042969 765.820312 210.199219 769.785156 201.699219 L 771.140625 198.796875 L 773.492188 196.621094 C 811.585938 161.425781 863.28125 145.066406 900.816406 137.507812 C 875.714844 130.894531 847.050781 136.203125 815.132812 153.449219 L 785.769531 169.308594 L 791.3125 136.402344 C 802.019531 72.871094 770.414062 45.121094 756.332031 36.125 C 742.246094 45.121094 710.644531 72.871094 721.347656 136.402344 L 726.890625 169.308594 L 697.53125 153.449219 C 665.613281 136.203125 636.941406 130.894531 611.84375 137.503906 Z M 59.371094 233.289062 C 44.605469 233.289062 32.59375 245.300781 32.59375 260.066406 C 32.59375 274.832031 44.605469 286.84375 59.371094 286.84375 C 65.773438 286.84375 71.96875 284.539062 76.824219 280.359375 L 77.316406 279.933594 C 82.929688 274.859375 86.148438 267.621094 86.148438 260.066406 C 86.148438 245.300781 74.136719 233.289062 59.371094 233.289062 Z M 1431.871094 281.917969 L 1432.539062 282.367188 C 1436.941406 285.296875 1442.058594 286.84375 1447.371094 286.84375 C 1462.128906 286.84375 1474.140625 274.832031 1474.140625 260.066406 C 1474.140625 245.300781 1462.128906 233.289062 1447.371094 233.289062 C 1432.601562 233.289062 1420.589844 245.300781 1420.589844 260.066406 C 1420.589844 268.527344 1424.46875 276.3125 1431.230469 281.433594 Z M 478.679688 276.363281 C 463.914062 276.363281 451.902344 288.375 451.902344 303.140625 C 451.902344 317.710938 463.753906 329.714844 478.320312 329.90625 L 481.53125 329.945312 L 484.636719 329.242188 C 496.699219 326.507812 505.453125 315.527344 505.453125 303.140625 C 505.453125 288.375 493.441406 276.363281 478.679688 276.363281 Z M 1169.460938 354.34375 C 1173.828125 357.230469 1178.921875 358.753906 1184.191406 358.753906 C 1198.960938 358.753906 1210.96875 346.742188 1210.96875 331.976562 C 1210.96875 317.214844 1198.960938 305.199219 1184.191406 305.199219 C 1169.429688 305.199219 1157.421875 317.214844 1157.421875 331.976562 C 1157.421875 340.671875 1161.679688 348.863281 1168.808594 353.886719 Z M 1029.148438 305.199219 C 1014.390625 305.199219 1002.371094 317.214844 1002.371094 331.976562 C 1002.371094 343.28125 1009.53125 353.421875 1020.171875 357.210938 L 1030.609375 360.925781 L 1040.601562 356.1875 C 1049.910156 351.769531 1055.929688 342.269531 1055.929688 331.976562 C 1055.929688 317.214844 1043.910156 305.199219 1029.148438 305.199219 Z M 345.199219 319.4375 C 330.433594 319.4375 318.421875 331.449219 318.421875 346.214844 C 318.421875 360.980469 330.433594 372.992188 345.199219 372.992188 C 346.859375 372.992188 348.558594 372.828125 350.242188 372.507812 L 354.480469 371.703125 L 358.246094 369.59375 C 366.714844 364.851562 371.972656 355.894531 371.972656 346.214844 C 371.972656 331.449219 359.964844 319.4375 345.199219 319.4375 Z M 378.640625 809.925781 L 1134.019531 809.925781 L 1376.578125 349.960938 C 1368.550781 356.378906 1360.738281 362.703125 1353.160156 368.921875 C 1237.390625 463.925781 1219.128906 499.089844 1216.300781 507.605469 L 1187.761719 593.242188 L 1161.210938 506.972656 C 1160.511719 504.6875 1147.761719 462.726562 1144.078125 413.308594 L 1108.101562 459.320312 L 1085.160156 439.988281 C 1082.691406 437.910156 1060.53125 418.871094 1040.179688 389.34375 C 1037.949219 386.109375 1035.78125 382.796875 1033.738281 379.503906 L 1031.058594 375.183594 L 1030.089844 377.953125 C 1027.449219 385.492188 1024.890625 392.855469 1022.5 399.824219 C 984.199219 511.28125 981.253906 537.714844 981.265625 543.164062 L 981.40625 623.433594 L 930.09375 561.707031 C 927.996094 559.1875 878.1875 498.9375 829.003906 411.332031 C 799.957031 359.59375 777.179688 308.996094 761.304688 260.941406 C 759.589844 255.742188 757.921875 250.46875 756.332031 245.210938 C 754.746094 250.460938 753.078125 255.730469 751.355469 260.941406 C 735.480469 308.996094 712.703125 359.597656 683.660156 411.332031 C 634.472656 498.941406 584.664062 559.1875 582.570312 561.707031 L 531.253906 623.429688 L 531.398438 543.164062 C 531.40625 537.714844 528.460938 511.269531 490.148438 399.773438 C 487.410156 391.808594 484.546875 383.570312 481.578125 375.109375 C 478.769531 379.875 475.734375 384.625 472.480469 389.34375 C 452.132812 418.871094 429.96875 437.910156 427.507812 439.984375 L 404.558594 459.320312 L 368.621094 413.359375 C 365.105469 461.398438 353.03125 501.84375 351.453125 506.96875 L 324.898438 593.242188 L 296.363281 507.605469 C 293.527344 499.085938 275.265625 463.90625 159.40625 368.84375 C 151.855469 362.648438 144.074219 356.347656 136.078125 349.960938 Z M 1153.679688 842.519531 L 358.980469 842.519531 L 80.980469 315.359375 C 74.144531 318.03125 66.820312 319.4375 59.371094 319.4375 C 26.632812 319.4375 0 292.804688 0 260.066406 C 0 227.328125 26.632812 200.695312 59.371094 200.695312 C 92.109375 200.695312 118.742188 227.328125 118.742188 260.066406 C 118.742188 270.320312 116.070312 280.3125 111.148438 289.09375 C 135.628906 307.847656 158.761719 326.152344 180.082031 343.644531 C 258.917969 408.332031 306.910156 456.652344 323.058594 487.558594 C 327.152344 472.003906 334.539062 439.96875 336.5 404.949219 C 307.871094 400.730469 285.824219 376 285.824219 346.214844 C 285.824219 313.476562 312.460938 286.84375 345.199219 286.84375 C 377.933594 286.84375 404.570312 313.476562 404.570312 346.214844 C 404.570312 361.289062 398.820312 375.574219 388.902344 386.378906 L 409.359375 412.539062 C 415.648438 406.820312 431.214844 391.785156 445.644531 370.847656 C 448.769531 366.3125 451.652344 361.761719 454.28125 357.21875 C 433.703125 347.851562 419.308594 327.050781 419.308594 303.140625 C 419.308594 270.402344 445.941406 243.769531 478.679688 243.769531 C 511.414062 243.769531 538.050781 270.402344 538.050781 303.140625 C 538.050781 316.683594 533.363281 329.929688 524.859375 340.445312 C 520.363281 346.003906 514.898438 350.6875 508.796875 354.285156 C 513.0625 366.34375 517.144531 378.03125 520.972656 389.179688 C 545.714844 461.183594 559.886719 509.691406 563.222656 533.78125 C 577.574219 515.640625 616.480469 464.410156 655.238281 395.375 C 683.261719 345.460938 705.1875 296.789062 720.40625 250.71875 C 721.824219 246.421875 723.207031 242.085938 724.53125 237.757812 C 721.035156 231.246094 717.761719 224.792969 714.757812 218.488281 C 657.621094 167.914062 562.851562 163.703125 561.886719 163.664062 L 522.875 162.164062 L 551.375 135.484375 C 576.277344 112.171875 605.585938 101.039062 638.511719 102.398438 C 654.046875 103.039062 670.132812 106.472656 686.578125 112.644531 C 686.34375 74.605469 699.558594 48.847656 712.089844 33.015625 C 728.984375 11.667969 748.011719 3.417969 750.128906 2.550781 L 756.332031 -0.00390625 L 762.53125 2.550781 C 764.648438 3.417969 783.679688 11.667969 800.574219 33.015625 C 813.101562 48.847656 826.320312 74.605469 826.082031 112.644531 C 842.527344 106.472656 858.613281 103.039062 874.148438 102.398438 C 907.078125 101.039062 936.382812 112.171875 961.285156 135.484375 L 989.785156 162.164062 L 950.773438 163.664062 C 949.824219 163.703125 854.851562 168.101562 797.902344 218.488281 C 794.898438 224.792969 791.628906 231.242188 788.132812 237.757812 C 789.457031 242.09375 790.839844 246.429688 792.253906 250.714844 C 807.472656 296.789062 829.402344 345.460938 857.425781 395.375 C 896.183594 464.410156 935.085938 515.640625 949.441406 533.777344 C 952.777344 509.695312 966.941406 461.203125 991.671875 389.234375 C 992.664062 386.335938 993.691406 383.367188 994.734375 380.351562 C 979.367188 369.390625 969.777344 351.464844 969.777344 331.976562 C 969.777344 299.238281 996.410156 272.605469 1029.148438 272.605469 C 1061.890625 272.605469 1088.519531 299.238281 1088.519531 331.976562 C 1088.519531 348.433594 1081.578125 363.980469 1069.980469 375.039062 C 1083.519531 393.789062 1097.441406 407.207031 1103.308594 412.539062 L 1137.570312 368.710938 C 1129.421875 358.355469 1124.820312 345.441406 1124.820312 331.976562 C 1124.820312 299.238281 1151.460938 272.605469 1184.191406 272.605469 C 1216.929688 272.605469 1243.558594 299.238281 1243.558594 331.976562 C 1243.558594 364.714844 1216.929688 391.347656 1184.191406 391.347656 C 1181.328125 391.347656 1178.480469 391.144531 1175.679688 390.742188 C 1176.070312 431.089844 1184.949219 469.917969 1189.601562 487.5625 C 1205.738281 456.667969 1253.699219 408.375 1332.488281 343.722656 C 1352.609375 327.214844 1374.390625 309.9375 1397.421875 292.242188 C 1391.308594 282.800781 1387.988281 271.726562 1387.988281 260.066406 C 1387.988281 227.328125 1414.628906 200.695312 1447.371094 200.695312 C 1480.101562 200.695312 1506.738281 227.328125 1506.738281 260.066406 C 1506.738281 292.804688 1480.101562 319.4375 1447.371094 319.4375 C 1441.699219 319.4375 1436.121094 318.640625 1430.769531 317.082031 L 1153.679688 842.519531" fill="#f7be23"/></g><g clip-path="url(#b)" id="change1_1"><path d="M 1160.851562 891.410156 L 345.886719 891.410156 C 336.886719 891.410156 329.589844 884.113281 329.589844 875.113281 C 329.589844 866.113281 336.886719 858.816406 345.886719 858.816406 L 1160.851562 858.816406 C 1169.851562 858.816406 1177.148438 866.113281 1177.148438 875.113281 C 1177.148438 884.113281 1169.851562 891.410156 1160.851562 891.410156" fill="#f7be23"/></g></g></svg>